<svg
  xmlns="http://www.w3.org/2000/svg"
  viewBox="0 0 64 64"
  shape-rendering="crispEdges"
>
  <rect x="20" y="0" width="24" height="4" fill="#111111" />
  <rect x="12" y="4" width="40" height="4" fill="#111111" />
  <rect x="8" y="8" width="48" height="4" fill="#111111" />
  <rect x="4" y="12" width="56" height="4" fill="#111111" />
  <rect x="4" y="16" width="56" height="4" fill="#111111" />
  <rect x="0" y="20" width="64" height="4" fill="#111111" />
  <rect x="0" y="24" width="64" height="4" fill="#111111" />
  <rect x="0" y="28" width="64" height="4" fill="#111111" />
  <rect x="0" y="32" width="64" height="4" fill="#111111" />
  <rect x="0" y="36" width="64" height="4" fill="#111111" />
  <rect x="0" y="40" width="64" height="4" fill="#111111" />
  <rect x="4" y="44" width="56" height="4" fill="#111111" />
  <rect x="4" y="48" width="56" height="4" fill="#111111" />
  <rect x="8" y="52" width="48" height="4" fill="#111111" />
  <rect x="12" y="56" width="40" height="4" fill="#111111" />
  <rect x="20" y="60" width="24" height="4" fill="#111111" />

  <rect x="16" y="4" width="32" height="4" fill="#f2485e" />
  <rect x="12" y="8" width="40" height="4" fill="#f2485e" />
  <rect x="8" y="12" width="48" height="4" fill="#f2485e" />
  <rect x="8" y="16" width="48" height="4" fill="#f2485e" />
  <rect x="4" y="20" width="56" height="4" fill="#f2485e" />
  <rect x="4" y="24" width="56" height="4" fill="#f2485e" />

  <rect x="4" y="40" width="56" height="4" fill="#f7f3eb" />
  <rect x="8" y="44" width="48" height="4" fill="#f7f3eb" />
  <rect x="8" y="48" width="48" height="4" fill="#f7f3eb" />
  <rect x="12" y="52" width="40" height="4" fill="#f7f3eb" />
  <rect x="16" y="56" width="32" height="4" fill="#f7f3eb" />

  <rect x="20" y="20" width="24" height="24" fill="#111111" />
  <rect x="24" y="24" width="16" height="16" fill="#f7f3eb" />
  <rect x="28" y="28" width="8" height="8" fill="#d1d5db" />
</svg>
